<svg width="62" height="62" viewBox="0 0 62 62" fill="none" xmlns="http://www.w3.org/2000/svg">
<path d="M34.77 49.5379L47.2555 46.5231C51.1768 45.6512 52.1955 50.3485 49.017 51.4973C46.8323 52.2612 37.6126 56.4587 30.8454 58.996C25.9779 60.8211 24.5058 61.065 19.3796 60.8205C14.5204 60.5888 12.9804 58.0269 8.64575 56.6625M23.1731 54.6809C26.1471 53.9825 29.0829 52.7519 32.3421 51.3408C33.585 50.8026 34.6843 49.9793 34.5639 48.5909C34.4437 47.2026 33.247 46.1684 31.9049 46.2923C30.6187 46.4111 23.4286 47.2992 22.1426 47.418C19.5035 47.6618 17.8244 43.5347 12.4574 43.6318H8.82661" stroke="#0B453C" stroke-width="1.8" stroke-miterlimit="2.6131" stroke-linecap="round" stroke-linejoin="round"/>
<path d="M8.21695 42.3684H0.899902V57.7975H8.21695V42.3684Z" stroke="#0B453C" stroke-width="1.8" stroke-miterlimit="22.9256" stroke-linecap="round" stroke-linejoin="round"/>
<path d="M26.0532 5.95421C29.6392 4.31678 36.7255 1.03326 38.0343 0.927406C42.5799 0.554481 48.7278 4.06934 53.1988 5.68616" stroke="#0B453C" stroke-width="1.8" stroke-miterlimit="2.6131" stroke-linecap="round" stroke-linejoin="round"/>
<path d="M37.3495 8.75493C35.1254 7.2925 32.595 6.36104 29.9536 6.03238C20.4373 4.84836 11.763 11.6028 10.579 21.119C9.55384 29.3573 14.5037 37.1686 22.3909 39.7593" stroke="#0B453C" stroke-width="1.8" stroke-miterlimit="2.6131" stroke-linecap="round" stroke-linejoin="round"/>
<path d="M53.1577 20.7092C47.8387 20.7487 43.947 20.6136 40.9961 16.1899C39.713 16.0434 33.1367 16.0304 31.9624 15.4923C27.9181 13.639 29.7938 9.84876 32.4579 9.30095C35.9367 8.58571 38.4175 8.94547 41.4714 8.86962" stroke="#0B453C" stroke-width="1.8" stroke-miterlimit="2.6131" stroke-linecap="round" stroke-linejoin="round"/>
<path d="M29.9431 10.9615C29.7465 10.9274 29.5492 10.8981 29.3511 10.8733C22.5085 10.0219 16.2713 14.8788 15.4199 21.7213C14.5684 28.564 19.4253 34.8013 26.2679 35.6526C33.1105 36.5041 39.3478 31.6471 40.1991 24.8046C40.5685 21.8361 39.8598 18.8337 38.202 16.3437" stroke="#0B453C" stroke-width="1.8" stroke-miterlimit="2.6131" stroke-linecap="round" stroke-linejoin="round"/>
<path d="M60.8998 3.90234H53.5828V22.1949H60.8998V3.90234Z" stroke="#0B453C" stroke-width="1.8" stroke-miterlimit="22.9256" stroke-linecap="round" stroke-linejoin="round"/>
<path d="M27.8105 40.6265H27.8101" stroke="#0B453C" stroke-width="1.8" stroke-miterlimit="2.6131" stroke-linecap="round" stroke-linejoin="round"/>
<path d="M33.2292 39.7592C39.6111 37.6626 44.211 32.073 45.0404 25.4071C45.2736 23.5331 45.1996 21.6336 44.821 19.7833" stroke="#0B453C" stroke-width="1.8" stroke-miterlimit="2.6131" stroke-linecap="round" stroke-linejoin="round"/>
<path d="M29.331 19.5909L28.7933 19.3682C27.7835 18.9501 26.6151 19.4338 26.1969 20.4438C25.7786 21.4536 26.2626 22.622 27.2724 23.0403L27.8102 23.263L28.348 23.4857C29.3577 23.9039 29.8416 25.0722 29.4235 26.0821C29.0052 27.092 27.8368 27.5759 26.827 27.1577L26.2893 26.935" stroke="#0B453C" stroke-width="1.8" stroke-miterlimit="22.9256" stroke-linecap="round" stroke-linejoin="round"/>
<path d="M27.8101 18.8879V17.7751" stroke="#0B453C" stroke-width="1.8" stroke-miterlimit="22.9256" stroke-linecap="round" stroke-linejoin="round"/>
<path d="M27.8101 28.7509V27.5383" stroke="#0B453C" stroke-width="1.8" stroke-miterlimit="22.9256" stroke-linecap="round" stroke-linejoin="round"/>
</svg>
