<svg width="60" height="60" viewBox="0 0 60 60" fill="none" xmlns="http://www.w3.org/2000/svg">
<path d="M59.1193 25.4491C59.6057 25.4491 60 25.0549 60 24.5684V15.3727C60 13.916 58.8148 12.7308 57.3581 12.7308H56.4431L54.7986 7.28279C54.3778 5.88838 52.9013 5.09572 51.5061 5.51701L44.8785 7.5174C44.4128 7.65791 44.1494 8.14928 44.2899 8.61487C44.4304 9.08045 44.9214 9.34424 45.3874 9.20338L52.0149 7.20311C52.4798 7.06248 52.9722 7.32686 53.1125 7.79162L54.6033 12.7308H33.7014L42.0173 10.2208C42.483 10.0803 42.7464 9.58893 42.6059 9.12334C42.4653 8.65764 41.9739 8.39362 41.5085 8.53471L27.6066 12.7307H12.399C11.9126 12.7307 11.5183 13.1249 11.5183 13.6114C11.5183 14.0978 11.9126 14.4921 12.399 14.4921H57.3581C57.8437 14.4921 58.2387 14.8871 58.2387 15.3727V23.7492C55.1738 24.179 52.8076 26.8183 52.8076 29.9998C52.8076 33.1814 55.1739 35.8205 58.2387 36.2505V44.6278C58.2387 45.1134 57.8437 45.5084 57.3581 45.5084H49.5094C49.023 45.5084 48.6288 45.9026 48.6288 46.3891C48.6288 46.8755 49.023 47.2698 49.5094 47.2698H57.3581C58.8148 47.2698 60 46.0845 60 44.6279V35.4311C60 34.9447 59.6057 34.5505 59.1193 34.5505C56.6101 34.5505 54.5687 32.509 54.5687 29.9998C54.5688 27.4905 56.6101 25.4491 59.1193 25.4491Z" fill="#0B453C"/>
<path d="M45.9871 45.5082H2.64188C2.15625 45.5082 1.76121 45.1131 1.76121 44.6275V15.3727C1.76121 14.8871 2.15625 14.492 2.64188 14.492H8.87648C9.36281 14.492 9.75715 14.0978 9.75715 13.6114C9.75715 13.1249 9.36281 12.7307 8.87648 12.7307H2.64188C1.18512 12.7308 0 13.9159 0 15.3727V44.6276C0 46.0843 1.18512 47.2695 2.64188 47.2695H3.55676L5.20113 52.7175C5.54555 53.8587 6.59684 54.5962 7.73168 54.5962C7.98375 54.5962 32.3932 47.2694 32.3932 47.2694H45.987C46.4734 47.2694 46.8676 46.8752 46.8676 46.3887C46.8676 45.9023 46.4734 45.5082 45.9871 45.5082ZM7.98481 52.7972C7.52016 52.9375 7.02762 52.6733 6.88734 52.2087L5.39648 47.2695H26.2985L7.98481 52.7972Z" fill="#0B453C"/>
<path d="M36.6184 22.9406C36.6184 23.427 37.0126 23.8212 37.4991 23.8212C37.9855 23.8212 38.3797 23.427 38.3797 22.9406V21.1794C38.3797 20.6929 37.9855 20.2987 37.4991 20.2987C37.0126 20.2987 36.6184 20.6929 36.6184 21.1794V22.9406Z" fill="#0B453C"/>
<path d="M36.6184 33.5081C36.6184 33.9945 37.0126 34.3888 37.4991 34.3888C37.9855 34.3888 38.3797 33.9945 38.3797 33.5081V31.7469C38.3797 31.2604 37.9855 30.8662 37.4991 30.8662C37.0126 30.8662 36.6184 31.2604 36.6184 31.7469V33.5081Z" fill="#0B453C"/>
<path d="M36.6184 44.0756C36.6184 44.562 37.0126 44.9563 37.4991 44.9563C37.9855 44.9563 38.3797 44.562 38.3797 44.0756V42.3144C38.3797 41.8279 37.9855 41.4337 37.4991 41.4337C37.0126 41.4337 36.6184 41.8279 36.6184 42.3144V44.0756Z" fill="#0B453C"/>
<path d="M36.6184 38.7918C36.6184 39.2782 37.0126 39.6724 37.4991 39.6724C37.9855 39.6724 38.3797 39.2782 38.3797 38.7918V37.0306C38.3797 36.5441 37.9855 36.1499 37.4991 36.1499C37.0126 36.1499 36.6184 36.5441 36.6184 37.0306V38.7918Z" fill="#0B453C"/>
<path d="M37.4991 18.5374C37.9855 18.5374 38.3797 18.1432 38.3797 17.6568V15.8956C38.3797 15.4091 37.9855 15.0149 37.4991 15.0149C37.0126 15.0149 36.6184 15.4091 36.6184 15.8956V17.6568C36.6185 18.1432 37.0126 18.5374 37.4991 18.5374Z" fill="#0B453C"/>
<path d="M36.6184 28.2243C36.6184 28.7107 37.0126 29.1049 37.4991 29.1049C37.9855 29.1049 38.3797 28.7107 38.3797 28.2243V26.4631C38.3797 25.9766 37.9855 25.5824 37.4991 25.5824C37.0126 25.5824 36.6184 25.9766 36.6184 26.4631V28.2243Z" fill="#0B453C"/>
<path d="M44.7691 36.4884V23.8638C44.7691 23.3774 44.3749 22.9832 43.8885 22.9832C43.402 22.9832 43.0078 23.3774 43.0078 23.8638V36.4884C43.0078 36.9749 43.402 37.3691 43.8885 37.3691C44.3749 37.3691 44.7691 36.9748 44.7691 36.4884Z" fill="#0B453C"/>
<path d="M48.9964 33.5453V26.8067C48.9964 26.3202 48.6022 25.926 48.1158 25.926C47.6293 25.926 47.2351 26.3202 47.2351 26.8067V33.5453C47.2351 34.0318 47.6293 34.426 48.1158 34.426C48.6022 34.426 48.9964 34.0318 48.9964 33.5453Z" fill="#0B453C"/>
<path d="M9.75708 25.9709V28.3356C9.75708 29.3752 10.5338 30.2346 11.5369 30.3698V37.9634C11.5369 39.4201 12.722 40.6053 14.1788 40.6053H25.7624C27.2192 40.6053 28.4043 39.4201 28.4043 37.9634V30.3698C29.4074 30.2346 30.184 29.3751 30.184 28.3356V25.9709C30.184 24.8379 29.2624 23.9161 28.1293 23.9161H27.8608C27.8792 23.4966 27.88 22.9831 27.8288 22.4411C27.6026 20.0434 26.5541 19.0499 25.7144 18.6386C23.7779 17.6902 22.1886 19.1575 21.4086 20.3689H18.5324C17.7525 19.1573 16.1633 17.6896 14.2266 18.6386C13.3868 19.0499 12.3384 20.0434 12.1122 22.4411C12.0611 22.9831 12.0618 23.4966 12.0802 23.9161H11.8117C10.6789 23.9161 9.75708 24.8379 9.75708 25.9709ZM11.5183 25.9709C11.5183 25.8089 11.65 25.6773 11.8118 25.6773H19.008V28.6292H11.8118C11.65 28.6292 11.5183 28.4976 11.5183 28.3356V25.9709ZM13.2981 37.9635V30.3905H19.008V38.8442H14.1788C13.6932 38.844 13.2981 38.4491 13.2981 37.9635ZM26.6431 37.9635C26.6431 38.4491 26.2481 38.8442 25.7624 38.8442H20.7692V30.3905H26.6431V37.9635ZM28.4229 25.9709V28.3356C28.4229 28.4976 28.2912 28.6292 28.1294 28.6292H20.7692V25.6773H28.1294C28.2912 25.6773 28.4229 25.809 28.4229 25.9709ZM24.9398 20.2203C26.0183 20.7485 26.1602 22.6859 26.0997 23.9161H22.7978V21.4764C23.0759 21.0051 23.9419 19.7317 24.9398 20.2203ZM21.0367 23.9161H18.9046V22.1301H21.0367V23.9161ZM15.0013 20.2203C15.614 19.7035 16.8459 20.8155 17.1433 21.4792V23.9161H13.8414C13.7811 22.6853 13.9231 20.7484 15.0013 20.2203Z" fill="#0B453C"/>
</svg>
